<svg width="29" height="24" viewBox="0 0 29 24" fill="none" xmlns="http://www.w3.org/2000/svg">
<path d="M24.6139 18.3V12.434C24.6139 11.1786 24.6139 10.5509 24.4406 9.98145C24.2871 9.47728 24.0355 9.00841 23.7003 8.60178C23.3216 8.14245 22.7986 7.7954 21.7526 7.10128L17.6038 4.3482C16.3245 3.4993 15.6848 3.07485 14.9939 2.9099C14.3833 2.76412 13.7469 2.76412 13.1362 2.9099C12.4453 3.07485 11.8057 3.4993 10.5264 4.3482L6.37756 7.10128L6.37755 7.10129C5.33154 7.7954 4.80854 8.14245 4.42986 8.60178C4.09463 9.00841 3.84305 9.47728 3.68959 9.98145C3.51624 10.5509 3.51624 11.1786 3.51624 12.434V18.3C3.51624 19.4201 3.51624 19.9802 3.73422 20.408C3.92597 20.7843 4.23193 21.0903 4.60825 21.282C5.03608 21.5 5.59613 21.5 6.71623 21.5H7.83775C7.95381 21.5 8.01184 21.5 8.06088 21.4976C9.08829 21.4471 9.90986 20.6255 9.96034 19.5981C9.96275 19.5491 9.96275 19.4911 9.96275 19.375V17.1023C9.96275 14.8367 11.7994 13 14.0651 13C16.3307 13 18.1674 14.8367 18.1674 17.1023V19.375C18.1674 19.4911 18.1674 19.5491 18.1698 19.5981C18.2203 20.6255 19.0419 21.4471 20.0693 21.4976C20.1183 21.5 20.1763 21.5 20.2924 21.5H21.4139C22.534 21.5 23.0941 21.5 23.5219 21.282C23.8982 21.0903 24.2042 20.7843 24.3959 20.408C24.6139 19.9802 24.6139 19.4201 24.6139 18.3Z" stroke="#828282" stroke-width="1.8"/>
</svg>
